<svg xmlns="http://www.w3.org/2000/svg" xmlns:xlink="http://www.w3.org/1999/xlink" viewBox="0 0 34.55 68.82"><defs><style>.cls-1{fill:#9ec53b;}.cls-2{fill:url(#linear-gradient);}.cls-3{fill:url(#linear-gradient-2);}.cls-4{fill:url(#linear-gradient-3);}</style><linearGradient id="linear-gradient" x1="13.85" y1="47.94" x2="30.32" y2="53.18" gradientUnits="userSpaceOnUse"><stop offset="0.13" stop-color="#0b6894"/><stop offset="0.23" stop-color="#157da5"/><stop offset="0.37" stop-color="#1f91b6"/><stop offset="0.52" stop-color="#26a0c2"/><stop offset="0.7" stop-color="#2aa8c9"/><stop offset="1" stop-color="#2babcb"/></linearGradient><linearGradient id="linear-gradient-2" y1="21.49" x2="34.55" y2="21.49" gradientUnits="userSpaceOnUse"><stop offset="0.27" stop-color="#67b545"/><stop offset="0.31" stop-color="#70b843"/><stop offset="0.43" stop-color="#84be40"/><stop offset="0.57" stop-color="#93c23d"/><stop offset="0.73" stop-color="#9bc43b"/><stop offset="1" stop-color="#9ec53b"/></linearGradient><linearGradient id="linear-gradient-3" x1="14.26" y1="50.23" x2="23.04" y2="53.02" gradientUnits="userSpaceOnUse"><stop offset="0" stop-color="#0b6894"/><stop offset="0.12" stop-color="#157da5"/><stop offset="0.27" stop-color="#1f91b6"/><stop offset="0.45" stop-color="#26a0c2"/><stop offset="0.66" stop-color="#2aa8c9"/><stop offset="1" stop-color="#2babcb"/></linearGradient></defs><title>logoAsset 1</title><g id="Layer_2" data-name="Layer 2"><g id="Layer_1-2" data-name="Layer 1"><ellipse class="cls-1" cx="19.89" cy="12.05" rx="3.85" ry="3.85"/><path class="cls-1" d="M26.17,17.1c0-.2-.27-.34-.59-.38a17.8,17.8,0,0,0-7.46.79,12.94,12.94,0,0,0-5,2.31,8.47,8.47,0,0,0-2.72,5.08,13.68,13.68,0,0,0,.21,5.1c.14.68.69,2.15,1.59,1.42a4.55,4.55,0,0,0,1.12-2.07c.43-1.28,0-2.68.51-4A4.3,4.3,0,0,1,15,23.7a21.14,21.14,0,0,1,2.05-1.46c.72-.49,1.46-.95,2.21-1.38,1.28-.74,2.58-1.43,3.91-2.06.59-.29,1.2-.52,1.78-.81a4.42,4.42,0,0,0,1-.51A.47.47,0,0,0,26.17,17.1Z"/><path class="cls-2" d="M25.3,68.82c-.11,0-.22-.73-1.63-7.73-1-4.85-1.81-8.94-2.42-11.69-.72-3.16-1.85-7.68-3.66-13.22l.52-.71a14.71,14.71,0,0,1,2.56-2.6c.49,1.83.94,3.7,1.37,5.63C25.56,54.53,25.83,68.76,25.3,68.82Z"/><path class="cls-3" d="M32.4,17.3c-2.26,4.45-5.79,7.31-8.36,9.4-1.36,1.1-2.4,1.79-3.37,2.57a14.71,14.71,0,0,0-2.56,2.6l-.52.72a21.48,21.48,0,0,0-2.94,6c-.05.18-.1.35-.14.51a20.62,20.62,0,0,0-.7,3.83c-.12-.21-.25-.42-.37-.65,0,0,0,0,0-.06a27,27,0,0,0-2.61-4l0,0q-.33-.42-.69-.84a9.43,9.43,0,0,0-2.7-2.53c-2.79-1.54-6.06-.47-7.38,0a6.29,6.29,0,0,1,2.31-2.77C4.8,30.53,8.5,31,11.55,33.37a58.77,58.77,0,0,1,3.95-4.58,67.23,67.23,0,0,1,6.93-6.21c4.07-3.41,7.37-6.53,9.07-11.06C33.67,5.78,32.19.07,32.86,0c.39,0,.94,1.86,1.24,3.22A23,23,0,0,1,32.4,17.3Z"/><path class="cls-4" d="M22.94,64.13c-.32.1-1.47-3.1-2.43-5.64a125.33,125.33,0,0,0-5.73-13.73c-.26-.51-.59-1.11-1-1.78a20.62,20.62,0,0,1,.7-3.83c1.05,2,1.89,3.77,2.51,5.11A72.31,72.31,0,0,1,22.6,60.92C22.79,61.89,23.19,64.06,22.94,64.13Z"/></g></g></svg>